<!-- Generator: Adobe Illustrator 19.0.0, SVG Export Plug-In  -->
<svg version="1.1"
	 xmlns="http://www.w3.org/2000/svg" xmlns:xlink="http://www.w3.org/1999/xlink" xmlns:a="http://ns.adobe.com/AdobeSVGViewerExtensions/3.0/"
	 x="0px" y="0px" width="100px" height="100px" viewBox="0 0 100 100" style="enable-background:new 0 0 100 100;"
	 xml:space="preserve">
<style type="text/css">
	.st0{fill:#B2B2B2;}
</style>
<defs>
</defs>
<circle class="st0" cx="50" cy="50" r="50"/>
<g>
	<g id="search_1_">
		<path d="M63.6,58.2h-2.9l-1.1-1.1c3.6-4,5.8-9.4,5.8-15.1c0-13-10.4-23.4-23.4-23.4S18.6,29.1,18.6,42S29.1,65.4,42,65.4
			c5.8,0,11.2-2.2,15.1-5.8l1.1,1.1v2.9l18,18l5.4-5.4L63.6,58.2z M42,58.2c-9,0-16.2-7.2-16.2-16.2S33,25.8,42,25.8
			S58.2,33,58.2,42S51,58.2,42,58.2z"/>
	</g>
</g>
</svg>
